<svg width="707" height="126" viewBox="0 0 707 126" fill="none" xmlns="http://www.w3.org/2000/svg">
<path d="M200.398 13.8765C200.398 16.6518 199.848 19.1146 198.748 21.2648C197.672 23.3901 196.172 25.1528 194.247 26.5529C192.347 27.9531 190.259 28.9782 187.984 29.6283C185.709 30.2783 183.296 30.6034 180.746 30.6034H174.783V46.7301C174.783 47.6052 174.92 48.3803 175.195 49.0554C175.495 49.7055 176.095 50.2055 176.995 50.5556C177.445 50.7306 178.233 50.8931 179.358 51.0431C180.508 51.1931 181.558 51.2806 182.508 51.3056V53.9684H159.668V51.3056C160.268 51.2556 161.131 51.1681 162.256 51.0431C163.406 50.9181 164.206 50.7556 164.656 50.5556C165.406 50.2305 165.944 49.7555 166.269 49.1304C166.619 48.5053 166.794 47.7052 166.794 46.7301V8.32591C166.794 7.45082 166.669 6.66323 166.419 5.96315C166.169 5.26308 165.582 4.73802 164.656 4.38798C163.706 4.06295 162.756 3.83792 161.806 3.71291C160.881 3.56289 160.081 3.46288 159.406 3.41288V0.750082H183.709C188.659 0.750082 192.672 1.95021 195.747 4.35048C198.848 6.72574 200.398 9.90109 200.398 13.8765ZM188.997 22.9525C189.847 21.7524 190.409 20.5148 190.684 19.2396C190.959 17.9395 191.097 16.7768 191.097 15.7517C191.097 14.3266 190.922 12.8764 190.572 11.4013C190.247 9.92609 189.672 8.63845 188.847 7.53833C187.971 6.3632 186.821 5.4506 185.396 4.80053C183.971 4.15046 182.196 3.82542 180.071 3.82542H174.783V27.3405H178.608C181.308 27.3405 183.496 26.928 185.171 26.1029C186.871 25.2528 188.146 24.2027 188.997 22.9525Z" fill="white" style="fill:white;fill-opacity:1;"/>
<path d="M250.783 53.9684H228.618V51.3056C230.568 51.1806 232.181 50.9306 233.456 50.5556C234.756 50.1805 235.406 49.718 235.406 49.1679C235.406 48.9429 235.381 48.6678 235.331 48.3428C235.281 48.0178 235.206 47.7302 235.106 47.4802L230.681 35.5539H212.041C211.341 37.3041 210.766 38.8293 210.316 40.1294C209.891 41.4296 209.504 42.6297 209.154 43.7298C208.829 44.8049 208.604 45.68 208.478 46.3551C208.353 47.0302 208.291 47.5802 208.291 48.0053C208.291 49.0054 209.079 49.7805 210.654 50.3305C212.229 50.8806 214.004 51.2056 215.979 51.3056V53.9684H195.952V51.3056C196.602 51.2556 197.415 51.1181 198.39 50.8931C199.365 50.6431 200.165 50.318 200.79 49.918C201.79 49.2429 202.565 48.5428 203.115 47.8178C203.665 47.0677 204.203 46.0426 204.728 44.7424C207.403 38.0667 210.354 30.5659 213.579 22.2399C216.804 13.914 219.68 6.50071 222.205 0H225.205L242.945 45.905C243.32 46.8802 243.745 47.6677 244.22 48.2678C244.695 48.8679 245.358 49.4554 246.208 50.0305C246.783 50.3805 247.533 50.6806 248.458 50.9306C249.383 51.1556 250.158 51.2806 250.783 51.3056V53.9684ZM229.331 32.216L221.267 11.5888L213.354 32.216H229.331Z" fill="white" style="fill:white;fill-opacity:1;"/>
<path d="M304.911 53.9684H290.584C287.409 48.9929 284.533 44.6924 281.958 41.067C279.408 37.4416 276.632 33.7037 273.632 29.8533H268.194V46.7301C268.194 47.6052 268.332 48.3803 268.607 49.0554C268.882 49.7055 269.469 50.2055 270.369 50.5556C270.819 50.7306 271.607 50.8931 272.732 51.0431C273.857 51.1931 274.807 51.2806 275.582 51.3056V53.9684H253.08V51.3056C253.68 51.2556 254.543 51.1681 255.668 51.0431C256.818 50.9181 257.618 50.7556 258.068 50.5556C258.818 50.2305 259.356 49.7555 259.681 49.1304C260.031 48.5053 260.206 47.7052 260.206 46.7301V8.25091C260.206 7.37581 260.081 6.60073 259.831 5.92565C259.581 5.25058 258.993 4.73802 258.068 4.38798C257.443 4.16296 256.63 3.96294 255.63 3.78792C254.63 3.58789 253.78 3.46288 253.08 3.41288V0.750082H277.645C279.895 0.750082 282.008 0.987608 283.983 1.46266C285.958 1.91271 287.746 2.65029 289.346 3.6754C290.897 4.67551 292.134 5.98816 293.059 7.61334C293.984 9.21351 294.447 11.1512 294.447 13.4265C294.447 15.4767 294.134 17.2894 293.509 18.8646C292.884 20.4397 291.959 21.8024 290.734 22.9525C289.609 24.0276 288.259 24.9652 286.684 25.7653C285.108 26.5404 283.371 27.203 281.47 27.7531C284.096 31.2284 286.271 34.1538 287.996 36.529C289.746 38.9043 291.884 41.7921 294.409 45.1925C295.51 46.6926 296.497 47.8053 297.372 48.5303C298.272 49.2304 299.16 49.8055 300.035 50.2555C300.685 50.5806 301.498 50.8306 302.473 51.0056C303.448 51.1806 304.26 51.2806 304.911 51.3056V53.9684ZM285.183 14.2891C285.183 11.0637 284.258 8.51344 282.408 6.63823C280.558 4.73802 277.945 3.78792 274.57 3.78792H268.194V26.6279H273.107C276.557 26.6279 279.433 25.5278 281.733 23.3276C284.033 21.1023 285.183 18.0895 285.183 14.2891Z" fill="white" style="fill:white;fill-opacity:1;"/>
<path d="M362.059 53.9684H339.894V51.3056C341.844 51.1806 343.457 50.9306 344.732 50.5556C346.032 50.1805 346.683 49.718 346.683 49.1679C346.683 48.9429 346.658 48.6678 346.608 48.3428C346.558 48.0178 346.483 47.7302 346.383 47.4802L341.957 35.5539H323.318C322.617 37.3041 322.042 38.8293 321.592 40.1294C321.167 41.4296 320.78 42.6297 320.43 43.7298C320.105 44.8049 319.88 45.68 319.755 46.3551C319.63 47.0302 319.567 47.5802 319.567 48.0053C319.567 49.0054 320.355 49.7805 321.93 50.3305C323.505 50.8806 325.28 51.2056 327.255 51.3056V53.9684H307.228V51.3056C307.878 51.2556 308.691 51.1181 309.666 50.8931C310.641 50.6431 311.441 50.318 312.066 49.918C313.066 49.2429 313.841 48.5428 314.391 47.8178C314.942 47.0677 315.479 46.0426 316.004 44.7424C318.679 38.0667 321.63 30.5659 324.855 22.2399C328.08 13.914 330.956 6.50071 333.481 0H336.481L354.221 45.905C354.596 46.8802 355.021 47.6677 355.496 48.2678C355.971 48.8679 356.634 49.4554 357.484 50.0305C358.059 50.3805 358.809 50.6806 359.734 50.9306C360.659 51.1556 361.434 51.2806 362.059 51.3056V53.9684ZM340.607 32.216L332.543 11.5888L324.63 32.216H340.607Z" fill="white" style="fill:white;fill-opacity:1;"/>
<path d="M407.073 38.1417L405.948 53.9684H364.356V51.3056C364.956 51.2556 365.819 51.1681 366.944 51.0431C368.094 50.9181 368.894 50.7556 369.344 50.5556C370.094 50.2305 370.632 49.7555 370.957 49.1304C371.307 48.5053 371.482 47.7052 371.482 46.7301V8.62595C371.482 7.77585 371.332 7.02577 371.032 6.3757C370.757 5.72563 370.194 5.20057 369.344 4.80053C368.769 4.50049 367.956 4.21296 366.906 3.93793C365.881 3.6379 365.031 3.46288 364.356 3.41288V0.750082H386.821V3.41288C386.121 3.43788 385.208 3.56289 384.083 3.78792C382.983 4.01294 382.183 4.21296 381.683 4.38798C380.833 4.68802 380.245 5.20057 379.92 5.92565C379.62 6.65073 379.47 7.42582 379.47 8.25091V43.9923C379.47 45.6425 379.545 46.9302 379.695 47.8553C379.87 48.7554 380.258 49.4554 380.858 49.9555C381.433 50.4055 382.283 50.7056 383.408 50.8556C384.558 50.9806 386.158 51.0431 388.209 51.0431C389.134 51.0431 390.096 51.0181 391.096 50.9681C392.096 50.9181 393.047 50.8181 393.947 50.6681C394.822 50.518 395.622 50.318 396.347 50.068C397.097 49.793 397.647 49.4554 397.997 49.0554C399.022 47.9053 400.21 46.1676 401.56 43.8423C402.935 41.4921 403.885 39.5918 404.41 38.1417H407.073Z" fill="white" style="fill:white;fill-opacity:1;"/>
<path d="M451.65 38.1417L450.524 53.9684H408.932V51.3056C409.532 51.2556 410.395 51.1681 411.52 51.0431C412.67 50.9181 413.47 50.7556 413.92 50.5556C414.67 50.2305 415.208 49.7555 415.533 49.1304C415.883 48.5053 416.058 47.7052 416.058 46.7301V8.62595C416.058 7.77585 415.908 7.02577 415.608 6.3757C415.333 5.72563 414.77 5.20057 413.92 4.80053C413.345 4.50049 412.533 4.21296 411.483 3.93793C410.457 3.6379 409.607 3.46288 408.932 3.41288V0.750082H431.397V3.41288C430.697 3.43788 429.785 3.56289 428.659 3.78792C427.559 4.01294 426.759 4.21296 426.259 4.38798C425.409 4.68802 424.822 5.20057 424.497 5.92565C424.196 6.65073 424.047 7.42582 424.047 8.25091V43.9923C424.047 45.6425 424.121 46.9302 424.271 47.8553C424.446 48.7554 424.834 49.4554 425.434 49.9555C426.009 50.4055 426.859 50.7056 427.984 50.8556C429.135 50.9806 430.735 51.0431 432.785 51.0431C433.71 51.0431 434.673 51.0181 435.673 50.9681C436.673 50.9181 437.623 50.8181 438.523 50.6681C439.398 50.518 440.198 50.318 440.923 50.068C441.673 49.793 442.224 49.4554 442.574 49.0554C443.599 47.9053 444.786 46.1676 446.136 43.8423C447.512 41.4921 448.462 39.5918 448.987 38.1417H451.65Z" fill="white" style="fill:white;fill-opacity:1;"/>
<path d="M498.026 38.2917L497.014 53.9684H452.834V51.3056C453.584 51.2556 454.584 51.1556 455.834 51.0056C457.084 50.8306 457.897 50.6556 458.272 50.4805C459.072 50.1055 459.622 49.618 459.922 49.0179C460.247 48.4178 460.41 47.6552 460.41 46.7301V8.47593C460.41 7.65084 460.272 6.92576 459.997 6.30069C459.722 5.65062 459.147 5.12556 458.272 4.72552C457.597 4.40048 456.684 4.11295 455.534 3.86292C454.409 3.6129 453.509 3.46288 452.834 3.41288V0.750082H494.013V13.5765H491.201C490.701 11.6763 489.613 9.66356 487.938 7.53833C486.288 5.38809 484.713 4.21296 483.212 4.01294C482.437 3.91293 481.512 3.83792 480.437 3.78792C479.362 3.73791 478.137 3.71291 476.762 3.71291H468.398V24.8652H474.399C476.324 24.8652 477.724 24.6902 478.599 24.3402C479.499 23.9651 480.287 23.3526 480.962 22.5025C481.512 21.7774 481.975 20.8148 482.35 19.6147C482.75 18.3895 483.012 17.2394 483.137 16.1643H485.95V36.9791H483.137C483.037 35.7789 482.762 34.5163 482.312 33.1911C481.887 31.841 481.437 30.8659 480.962 30.2658C480.187 29.2907 479.299 28.6532 478.299 28.3531C477.324 28.0531 476.024 27.9031 474.399 27.9031H468.398V43.8798C468.398 45.48 468.511 46.7426 468.736 47.6677C468.961 48.5928 469.398 49.2929 470.048 49.768C470.698 50.243 471.586 50.5556 472.711 50.7056C473.836 50.8306 475.437 50.8931 477.512 50.8931C478.337 50.8931 479.424 50.8931 480.775 50.8931C482.125 50.8931 483.262 50.8431 484.187 50.7431C485.138 50.6431 486.113 50.468 487.113 50.218C488.138 49.943 488.863 49.5805 489.288 49.1304C490.438 47.9303 491.638 46.1176 492.888 43.6923C494.164 41.242 494.976 39.4418 495.326 38.2917H498.026Z" fill="white" style="fill:white;fill-opacity:1;"/>
<path d="M541.744 38.1417L540.619 53.9684H499.027V51.3056C499.627 51.2556 500.49 51.1681 501.615 51.0431C502.765 50.9181 503.565 50.7556 504.015 50.5556C504.765 50.2305 505.303 49.7555 505.628 49.1304C505.978 48.5053 506.153 47.7052 506.153 46.7301V8.62595C506.153 7.77585 506.003 7.02577 505.703 6.3757C505.428 5.72563 504.865 5.20057 504.015 4.80053C503.44 4.50049 502.627 4.21296 501.577 3.93793C500.552 3.6379 499.702 3.46288 499.027 3.41288V0.750082H521.492V3.41288C520.792 3.43788 519.879 3.56289 518.754 3.78792C517.654 4.01294 516.854 4.21296 516.354 4.38798C515.504 4.68802 514.916 5.20057 514.591 5.92565C514.291 6.65073 514.141 7.42582 514.141 8.25091V43.9923C514.141 45.6425 514.216 46.9302 514.366 47.8553C514.541 48.7554 514.929 49.4554 515.529 49.9555C516.104 50.4055 516.954 50.7056 518.079 50.8556C519.229 50.9806 520.829 51.0431 522.879 51.0431C523.805 51.0431 524.767 51.0181 525.767 50.9681C526.767 50.9181 527.717 50.8181 528.618 50.6681C529.493 50.518 530.293 50.318 531.018 50.068C531.768 49.793 532.318 49.4554 532.668 49.0554C533.693 47.9053 534.881 46.1676 536.231 43.8423C537.606 41.4921 538.556 39.5918 539.081 38.1417H541.744Z" fill="white" style="fill:white;fill-opacity:1;"/>
<path d="M33.2662 99.8266C34.3913 101.077 35.2164 102.452 35.7414 103.952C36.2915 105.427 36.5665 107.152 36.5665 109.128C36.5665 113.828 34.8288 117.704 31.3534 120.754C27.8781 123.804 23.5651 125.329 18.4145 125.329C16.0393 125.329 13.664 124.967 11.2887 124.242C8.91348 123.492 6.86325 122.592 5.13806 121.541L3.52539 124.279H0.525058L0 106.052H3.03783C3.6629 108.303 4.38798 110.34 5.21307 112.165C6.06316 113.966 7.17579 115.653 8.55094 117.228C9.85108 118.704 11.3637 119.879 13.0889 120.754C14.8391 121.629 16.8644 122.067 19.1646 122.067C20.8898 122.067 22.39 121.842 23.6651 121.391C24.9652 120.941 26.0154 120.304 26.8154 119.479C27.6155 118.654 28.2031 117.691 28.5781 116.591C28.9782 115.466 29.1782 114.178 29.1782 112.728C29.1782 110.603 28.5781 108.628 27.378 106.802C26.1779 104.952 24.3902 103.552 22.0149 102.602C20.3897 101.952 18.527 101.239 16.4268 100.464C14.3266 99.664 12.5139 98.914 10.9887 98.2139C7.98838 96.8637 5.65062 95.101 3.97544 92.9258C2.32526 90.7256 1.50016 87.8628 1.50016 84.3374C1.50016 82.3121 1.91271 80.4244 2.7378 78.6742C3.56289 76.9241 4.73802 75.3614 6.26319 73.9862C7.71335 72.6861 9.42604 71.6735 11.4013 70.9484C13.3765 70.1983 15.4392 69.8233 17.5894 69.8233C20.0397 69.8233 22.2274 70.1983 24.1527 70.9484C26.1029 71.6985 27.8781 72.5736 29.4782 73.5737L31.0159 71.0234H34.0162L34.3163 88.6878H31.2784C30.7284 86.6626 30.1033 84.7249 29.4032 82.8747C28.7282 81.0245 27.8406 79.3493 26.7404 77.8492C25.6653 76.399 24.3527 75.2489 22.8025 74.3988C21.2523 73.5237 19.3521 73.0861 17.1019 73.0861C14.7266 73.0861 12.7014 73.8487 11.0262 75.3739C9.35103 76.8991 8.51344 78.7618 8.51344 80.962C8.51344 83.2622 9.05099 85.175 10.1261 86.7001C11.2012 88.2003 12.7639 89.4379 14.8141 90.413C16.6393 91.2881 18.427 92.0507 20.1772 92.7008C21.9524 93.3259 23.6651 94.0009 25.3153 94.726C26.8154 95.3761 28.2531 96.1137 29.6283 96.9388C31.0284 97.7638 32.241 98.7264 33.2662 99.8266Z" fill="white" style="fill:white;fill-opacity:1;"/>
<path d="M86.6435 77.3241C88.9938 79.7744 90.8315 82.7372 92.1566 86.2126C93.4818 89.663 94.1443 93.4884 94.1443 97.6888C94.1443 101.914 93.4693 105.752 92.1191 109.203C90.769 112.653 88.8938 115.591 86.4935 118.016C84.1682 120.416 81.4679 122.267 78.3926 123.567C75.3173 124.867 72.0419 125.517 68.5665 125.517C64.8661 125.517 61.4407 124.829 58.2904 123.454C55.1651 122.054 52.4773 120.116 50.227 117.641C47.9768 115.216 46.2016 112.278 44.9014 108.828C43.6263 105.352 42.9887 101.639 42.9887 97.6888C42.9887 93.3634 43.6638 89.5129 45.0139 86.1376C46.3641 82.7372 48.2268 79.7994 50.6021 77.3241C52.9523 74.8738 55.6776 72.9986 58.778 71.6985C61.9033 70.3983 65.1662 69.7483 68.5665 69.7483C72.0919 69.7483 75.4173 70.4108 78.5426 71.736C81.668 73.0611 84.3683 74.9238 86.6435 77.3241ZM81.0554 115.053C82.4556 112.778 83.4682 110.203 84.0932 107.327C84.7433 104.452 85.0683 101.239 85.0683 97.6888C85.0683 94.0384 84.7058 90.6881 83.9807 87.6377C83.2806 84.5874 82.243 81.9871 80.8679 79.8369C79.4927 77.7116 77.7675 76.0615 75.6923 74.8863C73.6171 73.6862 71.2418 73.0861 68.5665 73.0861C65.5662 73.0861 63.0159 73.7737 60.9157 75.1489C58.8155 76.524 57.1028 78.3617 55.7776 80.662C54.5275 82.8622 53.5899 85.4375 52.9648 88.3878C52.3647 91.3381 52.0647 94.4385 52.0647 97.6888C52.0647 101.289 52.3898 104.54 53.0398 107.44C53.6899 110.34 54.715 112.916 56.1152 115.166C57.4653 117.366 59.1655 119.091 61.2157 120.341C63.2659 121.566 65.7162 122.179 68.5665 122.179C71.2418 122.179 73.6546 121.554 75.8048 120.304C77.9551 119.054 79.7053 117.303 81.0554 115.053Z" fill="white" style="fill:white;fill-opacity:1;"/>
<path d="M124.644 125.479C121.469 125.479 118.419 124.854 115.493 123.604C112.593 122.354 110.018 120.554 107.767 118.204C105.542 115.853 103.767 112.991 102.442 109.615C101.117 106.215 100.454 102.389 100.454 98.1389C100.454 93.8884 101.104 90.038 102.404 86.5876C103.704 83.1122 105.505 80.1244 107.805 77.6241C110.08 75.1489 112.768 73.2361 115.868 71.886C118.969 70.5359 122.281 69.8608 125.807 69.8608C128.432 69.8608 130.807 70.1858 132.933 70.8359C135.058 71.486 137.083 72.3986 139.008 73.5737L140.546 71.0234H143.546L143.884 90.0005H140.808C140.408 88.1503 139.808 86.1501 139.008 83.9998C138.208 81.8246 137.271 79.9869 136.195 78.4867C134.995 76.7865 133.57 75.4614 131.92 74.5113C130.27 73.5362 128.382 73.0486 126.257 73.0486C123.832 73.0486 121.569 73.5862 119.469 74.6613C117.393 75.7364 115.593 77.3241 114.068 79.4243C112.618 81.4496 111.48 84.0248 110.655 87.1502C109.83 90.2755 109.418 93.7634 109.418 97.6138C109.418 101.014 109.843 104.14 110.693 106.99C111.568 109.815 112.805 112.303 114.406 114.453C116.006 116.578 117.893 118.241 120.069 119.441C122.269 120.641 124.719 121.241 127.419 121.241C129.445 121.241 131.307 120.929 133.008 120.304C134.708 119.654 136.183 118.804 137.433 117.754C138.683 116.653 139.783 115.403 140.733 114.003C141.684 112.603 142.459 111.078 143.059 109.428L145.872 110.778C143.721 116.053 140.871 119.829 137.321 122.104C133.77 124.354 129.545 125.479 124.644 125.479Z" fill="white" style="fill:white;fill-opacity:1;"/>
<path d="M174.196 124.242H150.231V121.579C150.906 121.529 151.881 121.454 153.156 121.354C154.431 121.254 155.332 121.104 155.857 120.904C156.682 120.579 157.282 120.141 157.657 119.591C158.032 119.016 158.219 118.229 158.219 117.228V78.6742C158.219 77.7991 158.082 77.0741 157.807 76.499C157.532 75.8989 156.882 75.3989 155.857 74.9988C155.107 74.6988 154.156 74.4238 153.006 74.1738C151.881 73.8987 150.956 73.7362 150.231 73.6862V71.0234H174.196V73.6862C173.421 73.7112 172.496 73.8112 171.421 73.9862C170.346 74.1363 169.408 74.3363 168.608 74.5863C167.658 74.8863 167.02 75.3739 166.695 76.049C166.37 76.724 166.208 77.4741 166.208 78.2992V116.816C166.208 117.641 166.383 118.379 166.733 119.029C167.108 119.654 167.733 120.154 168.608 120.529C169.133 120.729 169.983 120.954 171.158 121.204C172.358 121.429 173.371 121.554 174.196 121.579V124.242Z" fill="white" style="fill:white;fill-opacity:1;"/>
<path d="M225.998 108.565L224.986 124.242H180.806V121.579C181.556 121.529 182.556 121.429 183.806 121.279C185.056 121.104 185.869 120.929 186.244 120.754C187.044 120.379 187.594 119.891 187.894 119.291C188.219 118.691 188.382 117.929 188.382 117.003V78.7493C188.382 77.9242 188.244 77.1991 187.969 76.574C187.694 75.9239 187.119 75.3989 186.244 74.9988C185.569 74.6738 184.656 74.3863 183.506 74.1362C182.381 73.8862 181.481 73.7362 180.806 73.6862V71.0234H221.985V83.8498H219.173C218.673 81.9496 217.585 79.9369 215.91 77.8117C214.259 75.6614 212.684 74.4863 211.184 74.2863C210.409 74.1863 209.484 74.1112 208.409 74.0612C207.334 74.0112 206.109 73.9862 204.733 73.9862H196.37V95.1386H202.371C204.296 95.1386 205.696 94.9635 206.571 94.6135C207.471 94.2385 208.259 93.6259 208.934 92.7758C209.484 92.0507 209.947 91.0881 210.322 89.888C210.722 88.6628 210.984 87.5127 211.109 86.4376H213.922V107.252H211.109C211.009 106.052 210.734 104.79 210.284 103.464C209.859 102.114 209.409 101.139 208.934 100.539C208.159 99.564 207.271 98.9265 206.271 98.6264C205.296 98.3264 203.996 98.1764 202.371 98.1764H196.37V114.153C196.37 115.753 196.483 117.016 196.708 117.941C196.933 118.866 197.37 119.566 198.02 120.041C198.67 120.516 199.558 120.829 200.683 120.979C201.808 121.104 203.408 121.166 205.484 121.166C206.309 121.166 207.396 121.166 208.746 121.166C210.097 121.166 211.234 121.116 212.159 121.016C213.109 120.916 214.084 120.741 215.085 120.491C216.11 120.216 216.835 119.854 217.26 119.404C218.41 118.204 219.61 116.391 220.86 113.966C222.135 111.515 222.948 109.715 223.298 108.565H225.998Z" fill="white" style="fill:white;fill-opacity:1;"/>
<path d="M273.621 85.4625H271.033C270.808 84.5624 270.396 83.4998 269.795 82.2746C269.22 81.0245 268.57 79.8494 267.845 78.7493C267.095 77.5991 266.27 76.599 265.37 75.7489C264.495 74.8738 263.645 74.3738 262.82 74.2488C262.045 74.1487 261.069 74.0737 259.894 74.0237C258.719 73.9737 257.632 73.9487 256.631 73.9487H254.456V116.516C254.456 117.341 254.631 118.104 254.981 118.804C255.331 119.479 255.944 120.004 256.819 120.379C257.269 120.554 258.207 120.791 259.632 121.091C261.082 121.391 262.207 121.554 263.007 121.579V124.242H237.879V121.579C238.58 121.529 239.642 121.429 241.067 121.279C242.517 121.129 243.518 120.941 244.068 120.716C244.893 120.391 245.493 119.929 245.868 119.329C246.268 118.704 246.468 117.879 246.468 116.853V73.9487H244.293C243.518 73.9487 242.555 73.9737 241.405 74.0237C240.255 74.0487 239.155 74.1237 238.104 74.2488C237.279 74.3488 236.417 74.8488 235.517 75.7489C234.642 76.624 233.829 77.6241 233.079 78.7493C232.329 79.8744 231.666 81.0745 231.091 82.3496C230.516 83.5998 230.116 84.6374 229.891 85.4625H227.266V71.0234H273.621V85.4625Z" fill="white" style="fill:white;fill-opacity:1;"/>
<path d="M328.248 73.6862C327.823 73.7112 327.148 73.8862 326.223 74.2113C325.298 74.5113 324.635 74.8113 324.235 75.1114C323.26 75.7114 322.598 76.174 322.248 76.499C321.898 76.824 321.223 77.6741 320.223 79.0493C318.272 81.7996 316.472 84.5874 314.822 87.4127C313.172 90.238 311.109 93.8259 308.634 98.1764C307.709 99.7766 307.096 101.064 306.796 102.039C306.496 103.014 306.346 104.427 306.346 106.277V116.441C306.346 117.341 306.521 118.129 306.871 118.804C307.246 119.454 307.871 119.979 308.746 120.379C309.271 120.579 310.209 120.829 311.559 121.129C312.909 121.404 313.997 121.554 314.822 121.579V124.242H289.919V121.579C290.619 121.529 291.669 121.441 293.07 121.316C294.47 121.166 295.445 120.979 295.995 120.754C296.895 120.379 297.508 119.866 297.833 119.216C298.183 118.566 298.358 117.766 298.358 116.816V103.877C298.358 103.477 298.108 102.752 297.608 101.702C297.132 100.627 296.557 99.439 295.882 98.1389C294.382 95.2386 292.719 92.1007 290.894 88.7253C289.069 85.35 287.481 82.4622 286.131 80.0619C285.306 78.6367 284.569 77.5616 283.919 76.8365C283.293 76.1115 282.568 75.4739 281.743 74.9238C281.143 74.5488 280.418 74.2613 279.568 74.0612C278.743 73.8612 277.993 73.7362 277.318 73.6862V71.0234H300.008V73.6862C297.457 73.7362 295.657 73.9112 294.607 74.2113C293.557 74.5113 293.032 74.9363 293.032 75.4864C293.032 75.6364 293.107 75.8989 293.257 76.274C293.407 76.649 293.62 77.1241 293.895 77.6991C294.22 78.3492 294.607 79.0993 295.057 79.9494C295.507 80.7745 295.932 81.5746 296.332 82.3496C297.507 84.5749 298.708 86.8001 299.933 89.0254C301.158 91.2256 302.758 94.1009 304.733 97.6513C308.659 91.3256 311.647 86.4001 313.697 82.8747C315.772 79.3243 316.81 77.1991 316.81 76.499C316.81 75.9239 316.597 75.4614 316.172 75.1114C315.747 74.7613 315.184 74.4863 314.484 74.2863C313.759 74.0862 312.972 73.9612 312.122 73.9112C311.272 73.8362 310.484 73.7612 309.759 73.6862V71.0234H328.248V73.6862Z" fill="white" style="fill:white;fill-opacity:1;"/>
<path d="M393.369 84.3374H390.557C390.032 82.3621 388.931 80.2494 387.256 77.9992C385.606 75.7489 384.018 74.5113 382.493 74.2863C381.718 74.1863 380.793 74.1112 379.718 74.0612C378.668 74.0112 377.468 73.9862 376.117 73.9862H367.192V95.3636H373.305C375.155 95.3636 376.593 95.1761 377.618 94.801C378.643 94.401 379.518 93.8009 380.243 93.0008C380.743 92.4508 381.193 91.6007 381.593 90.4505C382.018 89.2754 382.293 88.0253 382.418 86.7001H385.269V107.59H382.418C382.343 106.49 382.081 105.24 381.631 103.84C381.206 102.439 380.743 101.427 380.243 100.802C379.493 99.8766 378.543 99.2515 377.393 98.9265C376.267 98.5764 374.905 98.4014 373.305 98.4014H367.192V116.741C367.192 117.566 367.354 118.304 367.679 118.954C368.004 119.604 368.579 120.129 369.404 120.529C369.779 120.704 370.592 120.916 371.842 121.166C373.092 121.416 374.042 121.554 374.692 121.579V124.242H351.627V121.579C352.377 121.529 353.378 121.454 354.628 121.354C355.878 121.229 356.69 121.079 357.065 120.904C357.815 120.579 358.353 120.104 358.678 119.479C359.028 118.829 359.203 118.054 359.203 117.153V78.7493C359.203 77.9242 359.066 77.1991 358.791 76.574C358.516 75.9239 357.94 75.3989 357.065 74.9988C356.39 74.6738 355.478 74.3863 354.328 74.1362C353.202 73.8862 352.302 73.7362 351.627 73.6862V71.0234H393.369V84.3374Z" fill="white" style="fill:white;fill-opacity:1;"/>
<path d="M443.259 108.565L442.246 124.242H398.066V121.579C398.816 121.529 399.817 121.429 401.067 121.279C402.317 121.104 403.129 120.929 403.504 120.754C404.305 120.379 404.855 119.891 405.155 119.291C405.48 118.691 405.642 117.929 405.642 117.003V78.7493C405.642 77.9242 405.505 77.1991 405.23 76.574C404.955 75.9239 404.38 75.3989 403.504 74.9988C402.829 74.6738 401.917 74.3863 400.767 74.1362C399.642 73.8862 398.741 73.7362 398.066 73.6862V71.0234H439.246V83.8498H436.433C435.933 81.9496 434.845 79.9369 433.17 77.8117C431.52 75.6614 429.945 74.4863 428.445 74.2863C427.67 74.1863 426.745 74.1112 425.669 74.0612C424.594 74.0112 423.369 73.9862 421.994 73.9862H413.631V95.1386H419.631C421.556 95.1386 422.957 94.9635 423.832 94.6135C424.732 94.2385 425.519 93.6259 426.194 92.7758C426.745 92.0507 427.207 91.0881 427.582 89.888C427.982 88.6628 428.245 87.5127 428.37 86.4376H431.183V107.252H428.37C428.27 106.052 427.995 104.79 427.545 103.464C427.12 102.114 426.67 101.139 426.194 100.539C425.419 99.564 424.532 98.9265 423.532 98.6264C422.557 98.3264 421.256 98.1764 419.631 98.1764H413.631V114.153C413.631 115.753 413.743 117.016 413.968 117.941C414.193 118.866 414.631 119.566 415.281 120.041C415.931 120.516 416.818 120.829 417.944 120.979C419.069 121.104 420.669 121.166 422.744 121.166C423.569 121.166 424.657 121.166 426.007 121.166C427.357 121.166 428.495 121.116 429.42 121.016C430.37 120.916 431.345 120.741 432.345 120.491C433.37 120.216 434.095 119.854 434.52 119.404C435.67 118.204 436.871 116.391 438.121 113.966C439.396 111.515 440.209 109.715 440.559 108.565H443.259Z" fill="white" style="fill:white;fill-opacity:1;"/>
<path d="M482.197 99.8266C483.322 101.077 484.147 102.452 484.672 103.952C485.222 105.427 485.498 107.152 485.498 109.128C485.498 113.828 483.76 117.704 480.284 120.754C476.809 123.804 472.496 125.329 467.346 125.329C464.97 125.329 462.595 124.967 460.22 124.242C457.844 123.492 455.794 122.592 454.069 121.541L452.456 124.279H449.456L448.931 106.052H451.969C452.594 108.303 453.319 110.34 454.144 112.165C454.994 113.966 456.107 115.653 457.482 117.228C458.782 118.704 460.295 119.879 462.02 120.754C463.77 121.629 465.795 122.067 468.096 122.067C469.821 122.067 471.321 121.842 472.596 121.391C473.896 120.941 474.946 120.304 475.746 119.479C476.547 118.654 477.134 117.691 477.509 116.591C477.909 115.466 478.109 114.178 478.109 112.728C478.109 110.603 477.509 108.628 476.309 106.802C475.109 104.952 473.321 103.552 470.946 102.602C469.321 101.952 467.458 101.239 465.358 100.464C463.258 99.664 461.445 98.914 459.92 98.2139C456.919 96.8637 454.582 95.101 452.906 92.9258C451.256 90.7256 450.431 87.8628 450.431 84.3374C450.431 82.3121 450.844 80.4244 451.669 78.6742C452.494 76.9241 453.669 75.3614 455.194 73.9862C456.644 72.6861 458.357 71.6735 460.332 70.9484C462.307 70.1983 464.37 69.8233 466.52 69.8233C468.971 69.8233 471.158 70.1983 473.084 70.9484C475.034 71.6985 476.809 72.5736 478.409 73.5737L479.947 71.0234H482.947L483.247 88.6878H480.209C479.659 86.6626 479.034 84.7249 478.334 82.8747C477.659 81.0245 476.772 79.3493 475.671 77.8492C474.596 76.399 473.284 75.2489 471.733 74.3988C470.183 73.5237 468.283 73.0861 466.033 73.0861C463.658 73.0861 461.632 73.8487 459.957 75.3739C458.282 76.8991 457.444 78.7618 457.444 80.962C457.444 83.2622 457.982 85.175 459.057 86.7001C460.132 88.2003 461.695 89.4379 463.745 90.413C465.57 91.2881 467.358 92.0507 469.108 92.7008C470.883 93.3259 472.596 94.0009 474.246 94.726C475.746 95.3761 477.184 96.1137 478.559 96.9388C479.959 97.7638 481.172 98.7264 482.197 99.8266Z" fill="white" style="fill:white;fill-opacity:1;"/>
<path d="M535.837 85.4625H533.249C533.024 84.5624 532.612 83.4998 532.012 82.2746C531.437 81.0245 530.786 79.8494 530.061 78.7493C529.311 77.5991 528.486 76.599 527.586 75.7489C526.711 74.8738 525.861 74.3738 525.036 74.2488C524.261 74.1487 523.286 74.0737 522.111 74.0237C520.935 73.9737 519.848 73.9487 518.848 73.9487H516.672V116.516C516.672 117.341 516.847 118.104 517.197 118.804C517.548 119.479 518.16 120.004 519.035 120.379C519.485 120.554 520.423 120.791 521.848 121.091C523.298 121.391 524.423 121.554 525.223 121.579V124.242H500.096V121.579C500.796 121.529 501.858 121.429 503.283 121.279C504.734 121.129 505.734 120.941 506.284 120.716C507.109 120.391 507.709 119.929 508.084 119.329C508.484 118.704 508.684 117.879 508.684 116.853V73.9487H506.509C505.734 73.9487 504.771 73.9737 503.621 74.0237C502.471 74.0487 501.371 74.1237 500.321 74.2488C499.496 74.3488 498.633 74.8488 497.733 75.7489C496.858 76.624 496.045 77.6241 495.295 78.7493C494.545 79.8744 493.882 81.0745 493.307 82.3496C492.732 83.5998 492.332 84.6374 492.107 85.4625H489.482V71.0234H535.837V85.4625Z" fill="white" style="fill:white;fill-opacity:1;"/>
<path d="M562.345 124.242H538.38V121.579C539.055 121.529 540.03 121.454 541.305 121.354C542.58 121.254 543.48 121.104 544.005 120.904C544.83 120.579 545.43 120.141 545.805 119.591C546.18 119.016 546.368 118.229 546.368 117.228V78.6742C546.368 77.7991 546.23 77.0741 545.955 76.499C545.68 75.8989 545.03 75.3989 544.005 74.9988C543.255 74.6988 542.305 74.4238 541.155 74.1738C540.03 73.8987 539.105 73.7362 538.38 73.6862V71.0234H562.345V73.6862C561.57 73.7112 560.645 73.8112 559.57 73.9862C558.494 74.1363 557.557 74.3363 556.757 74.5863C555.807 74.8863 555.169 75.3739 554.844 76.049C554.519 76.724 554.356 77.4741 554.356 78.2992V116.816C554.356 117.641 554.531 118.379 554.881 119.029C555.256 119.654 555.882 120.154 556.757 120.529C557.282 120.729 558.132 120.954 559.307 121.204C560.507 121.429 561.52 121.554 562.345 121.579V124.242Z" fill="white" style="fill:white;fill-opacity:1;"/>
<path d="M619.939 73.6862C619.289 73.7112 618.502 73.8612 617.577 74.1362C616.651 74.3863 615.889 74.6988 615.289 75.0739C614.439 75.5989 613.751 76.274 613.226 77.0991C612.726 77.9242 612.226 78.8993 611.726 80.0244C610.051 83.9998 607.538 90.2005 604.188 98.6264C600.837 107.027 597.387 115.791 593.836 124.917H590.724C587.123 115.241 583.648 105.915 580.297 96.9388C576.947 87.9628 574.672 81.8996 573.472 78.7493C573.172 77.9742 572.772 77.2991 572.272 76.724C571.771 76.124 571.109 75.5614 570.284 75.0363C569.609 74.6113 568.859 74.2988 568.034 74.0987C567.209 73.8737 566.446 73.7362 565.746 73.6862V71.0234H587.761V73.6862C585.886 73.7862 584.298 73.9737 582.998 74.2488C581.723 74.5238 581.085 75.0113 581.085 75.7114C581.085 75.9864 581.135 76.3115 581.235 76.6865C581.335 77.0616 581.423 77.3616 581.498 77.5866C582.423 80.0369 583.923 84.0373 585.998 89.5879C588.073 95.1136 591.024 102.989 594.849 113.216C596.749 108.59 598.937 103.127 601.412 96.8262C603.888 90.5255 605.55 86.2001 606.4 83.8498C607.225 81.5746 607.701 79.9994 607.825 79.1243C607.976 78.2492 608.05 77.5366 608.05 76.9866C608.05 76.4115 607.788 75.9364 607.263 75.5614C606.763 75.1614 606.088 74.8238 605.238 74.5488C604.413 74.2988 603.575 74.1112 602.725 73.9862C601.875 73.8612 601.012 73.7612 600.137 73.6862V71.0234H619.939V73.6862Z" fill="white" style="fill:white;fill-opacity:1;"/>
<path d="M661.986 124.242H639.821V121.579C641.771 121.454 643.384 121.204 644.659 120.829C645.959 120.454 646.609 119.991 646.609 119.441C646.609 119.216 646.584 118.941 646.534 118.616C646.484 118.291 646.409 118.004 646.309 117.754L641.884 105.827H623.244C622.544 107.577 621.969 109.103 621.519 110.403C621.094 111.703 620.707 112.903 620.357 114.003C620.031 115.078 619.807 115.953 619.681 116.628C619.556 117.303 619.494 117.854 619.494 118.279C619.494 119.279 620.282 120.054 621.857 120.604C623.432 121.154 625.207 121.479 627.182 121.579V124.242H607.155V121.579C607.805 121.529 608.618 121.391 609.593 121.166C610.568 120.916 611.368 120.591 611.993 120.191C612.993 119.516 613.768 118.816 614.318 118.091C614.868 117.341 615.406 116.316 615.931 115.016C618.606 108.34 621.557 100.839 624.782 92.5133C628.007 84.1873 630.883 76.774 633.408 70.2733H636.408L654.148 116.178C654.523 117.153 654.948 117.941 655.423 118.541C655.898 119.141 656.561 119.729 657.411 120.304C657.986 120.654 658.736 120.954 659.661 121.204C660.586 121.429 661.361 121.554 661.986 121.579V124.242ZM640.534 102.489L632.47 81.8621L624.557 102.489H640.534Z" fill="white" style="fill:white;fill-opacity:1;"/>
<path d="M707 108.415L705.875 124.242H664.283V121.579C664.883 121.529 665.746 121.441 666.871 121.316C668.021 121.191 668.821 121.029 669.271 120.829C670.021 120.504 670.559 120.029 670.884 119.404C671.234 118.779 671.409 117.979 671.409 117.003V78.8993C671.409 78.0492 671.259 77.2991 670.959 76.649C670.684 75.999 670.121 75.4739 669.271 75.0739C668.696 74.7738 667.883 74.4863 666.833 74.2113C665.808 73.9112 664.958 73.7362 664.283 73.6862V71.0234H686.748V73.6862C686.048 73.7112 685.135 73.8362 684.01 74.0612C682.91 74.2863 682.11 74.4863 681.61 74.6613C680.76 74.9613 680.172 75.4739 679.847 76.199C679.547 76.9241 679.397 77.6991 679.397 78.5242V114.266C679.397 115.916 679.472 117.203 679.622 118.129C679.797 119.029 680.185 119.729 680.785 120.229C681.36 120.679 682.21 120.979 683.335 121.129C684.485 121.254 686.085 121.316 688.135 121.316C689.061 121.316 690.023 121.291 691.023 121.241C692.023 121.191 692.974 121.091 693.874 120.941C694.749 120.791 695.549 120.591 696.274 120.341C697.024 120.066 697.574 119.729 697.924 119.329C698.949 118.179 700.137 116.441 701.487 114.116C702.862 111.765 703.812 109.865 704.337 108.415H707Z" fill="white" style="fill:white;fill-opacity:1;"/>
</svg>
